PathFileType	4	(X/Y/Z)	OpenSim_Sub09_CSStiffKnee_Accel.trc
DataRate	CameraRate	NumFrames	NumMarkers	Units	OrigDataRate	OrigDataStartFrame	OrigNumFrames
100	100	34	8	m	100	5346	7127
Frame#	Time	torso_imu_offset_imu	pelvis_imu_offset_imu	tibia_r_imu_offset_imu	femur_r_imu_offset_imu	tibia_l_imu_offset_imu	femur_l_imu_offset_imu	toes_r_imu_offset_imu	toes_l_imu_offset_imu
				X1	Y1	Z1	X2	Y2	Z2	X3	Y3	Z3	X4	Y4	Z4	X5	Y5	Z5	X6	Y6	Z6	X7	Y7	Z7	X8		Y8	Z8	

5346	53.45000000	7.82081882	2.18233824	7.26533918	8.92361060	-2.35343827	2.69839144	8.33030812	1.03147673	2.33240711	8.02525947	-5.29888834	2.58140750	10.22074466	-2.71765813	0.35217636	10.09093469	-0.05426461	-1.42754820	7.04500989	-2.29565837	7.20468236	5.62156027	2.32069155	10.69529407
5347	53.46000000	7.92558310	2.23418531	7.34882606	9.08981026	-2.43134981	2.59562471	8.42247938	0.74292089	2.43781927	7.89097087	-4.99918505	2.60096857	10.00250461	-2.63974284	0.71226557	10.08300723	0.03249037	-1.53160522	6.91473776	-2.14586552	6.78983178	5.50276757	2.20917841	10.70400778
5348	53.47000000	7.96680564	2.38156751	7.40935990	9.26107486	-2.49110120	2.47281613	8.35098526	0.31269617	2.48252902	7.75726707	-4.72548948	2.65734091	9.92117467	-2.55081907	0.96500647	9.97093304	0.10974918	-1.78657904	7.11428954	-1.90096506	6.39827304	5.15050764	2.35149618	11.01371099
5349	53.48000000	8.05495094	2.43080956	7.38709069	9.40034513	-2.47257564	2.39689026	8.09001921	-0.07419082	2.57033272	7.66517753	-4.43629140	2.70793312	10.02536745	-2.20406044	1.10114549	9.92081348	0.10917120	-1.84652581	7.28813761	-1.88814449	5.86468425	5.38354605	2.13806730	10.90519352
5350	53.49000000	8.09550892	2.43562682	7.37267852	9.44872514	-2.45183913	2.38056472	7.92537652	-0.26329159	2.57002438	7.64731250	-4.19121627	2.89343319	9.99191344	-1.79469535	0.95817317	9.97311652	0.19136536	-1.85246741	7.25486584	-2.07733855	5.24463435	5.61162409	2.16638929	10.71411667
5351	53.50000000	8.06368733	2.49926689	7.34081490	9.37667085	-2.42435576	2.30262329	7.84137919	-0.25955114	2.44359184	7.55932353	-3.99954942	3.11052248	9.97052428	-1.81976133	0.79178827	9.71191320	0.23882205	-1.97012123	7.09149112	-2.21428703	4.42212405	5.63473040	2.02916897	10.62494937
5352	53.51000000	8.06513295	2.54938585	7.33109876	9.22500117	-2.41486022	2.21569464	7.77967426	-0.21075086	2.26257132	7.49754243	-3.97314854	3.23041695	10.05101809	-2.06113805	0.76495639	9.96143158	0.51065372	-2.11915143	6.77398958	-1.94790269	3.56467578	5.32114055	2.31381970	10.86224899
5353	53.52000000	8.09298808	2.60943162	7.25238027	8.98794389	-2.32514344	2.27937442	7.76674873	-0.22075126	2.19187424	7.40175256	-4.07223236	3.32926046	10.02525031	-2.18209735	0.79471982	9.97483075	0.52625920	-2.14778717	6.49243624	-1.34385377	2.64051229	5.31903305	2.41926660	10.85925387
5354	53.53000000	8.09690790	2.62583699	7.13412434	8.80875145	-2.29638709	2.16202978	7.62045381	-0.48852447	2.23930756	7.31583291	-4.23286005	3.41613812	10.05144437	-1.81961874	0.58550857	9.84207675	0.62020259	-1.98753389	6.78318304	-0.59830759	1.81811380	5.58661513	2.32086902	10.64816549
5355	53.54000000	8.10521143	2.69848540	7.07998167	8.66258809	-2.27660454	2.01309438	7.23837978	-0.85882213	2.33689619	7.24198451	-4.41708064	3.45205654	10.21203404	-1.60074008	0.58893716	9.86893811	0.84216557	-1.75557709	7.73975505	0.08665052	1.11998022	5.95511097	2.02386872	10.49783618
5356	53.55000000	7.99436432	2.81924556	7.06280589	8.52368482	-2.18149568	2.00399221	6.85843768	-1.08568091	2.53975444	7.21631524	-4.60904401	3.54778401	10.21465938	-1.79506733	0.96171008	9.62364407	0.93399480	-1.70876812	9.17012248	0.68613052	0.48375799	5.72557820	2.20932438	10.68512858
5357	53.56000000	7.90853864	2.91534087	7.06051850	8.37911246	-2.18322100	1.88406233	6.54602307	-0.89635139	2.44512147	7.18487899	-5.02842063	3.89640427	10.26003446	-2.01994054	0.77192144	9.64169910	1.20828774	-1.59210999	10.22679358	1.20904086	-0.28771265	5.38059101	2.15655300	10.87154910
5358	53.57000000	7.95525166	2.98776840	6.87031536	8.27582455	-2.10782894	1.70604261	6.10015970	-0.32134905	1.82381193	7.15734183	-5.54761399	4.21166527	10.58781786	-2.01908767	0.28085487	9.71621511	1.29100064	-1.59088663	10.93981355	1.57930404	-0.95914739	5.65559737	2.03131382	10.75005976
5359	53.58000000	8.07939531	3.11642459	6.71504979	8.24457647	-2.03271009	1.39906671	5.72709018	0.23860303	0.80222375	7.30545573	-5.91094274	4.11224326	10.49756308	-1.92981591	0.62334597	9.56701312	1.38160570	-1.48461707	11.72033187	1.64721973	-1.28091257	5.91087360	1.92166563	10.59357960
5360	53.59000000	8.22516579	3.24351702	6.71881479	8.31226857	-1.91077953	1.09722078	5.25756209	0.72348658	0.27305399	7.26670898	-5.69491847	3.79248279	10.14381245	-1.81059089	1.09775603	9.79170795	1.45192096	-1.30241870	12.64261560	1.03165018	-1.19173417	5.86640031	1.93681442	10.64055044
5361	53.60000000	8.38769891	3.35054212	6.66399634	8.40372592	-1.84484826	0.76067622	4.75898718	1.15763807	0.14127583	6.95232062	-5.00329304	3.84196464	10.32610740	-1.85296895	1.07135444	9.72388322	1.30218225	-1.29171648	13.69663342	0.63508068	-1.24128259	5.58306615	2.23388092	10.86499655
5362	53.61000000	8.55649061	3.32269895	6.56196606	8.52315730	-1.80150825	0.38886936	4.41250977	1.67915126	0.13382669	6.56163786	-4.57938619	4.31098379	10.41329217	-1.80552508	1.43199613	9.70887553	1.18331509	-0.90415529	12.55796335	-0.45195015	0.72559856	5.78068201	2.17958359	10.76253226
5363	53.62000000	8.78224100	3.09739825	6.48019933	8.97944205	-2.07336314	0.81741421	4.09881191	2.88867393	0.36531446	6.12919223	-4.45730101	5.27363707	10.23637986	-1.21868479	1.77963907	10.00410037	0.94484101	-0.97895487	-1.11501269	1.62184835	-3.36816888	5.93203492	2.12081208	10.64173519
5364	53.63000000	9.32383167	3.02481561	6.99722998	10.78492474	-1.88020530	4.79029282	6.67654399	3.24453605	-1.44035148	6.63264391	-3.69356316	5.76624263	10.31535686	-0.75022292	2.30188658	10.18661997	0.95254237	-1.39830890	-29.97839012	-0.80901329	8.81732968	6.29464406	2.10422000	10.83009033
5365	53.64000000	11.60580805	2.78142757	8.07526319	12.01805600	-0.54675316	7.99714349	18.73292276	4.16892559	16.11734430	9.49618512	-1.96455617	4.95163601	11.50904404	-0.04148204	2.56379461	10.70093307	1.19787641	-1.21318901	1.51703052	-12.19974363	22.78505628	5.82646195	2.21237338	11.73803747
5366	53.65000000	13.29636486	2.16394253	9.17014002	13.01930131	0.60557404	9.50389368	36.66131795	-11.64144123	17.89618158	15.15949036	-0.39182353	6.25784768	12.97021453	1.13373128	3.21717219	11.45414360	1.62805670	-0.83145294	35.70876672	1.22224283	16.99013585	5.51189533	2.35185581	12.11638388
5367	53.66000000	12.68927621	1.84931248	9.72049326	15.84390634	2.25614052	10.42072812	38.57070267	-22.60506315	2.36953298	24.90931091	0.45731183	6.40364297	12.85987408	1.16669053	4.33654138	11.75736804	1.45914383	-0.47984174	23.59939461	5.07035018	10.87627445	5.56085705	2.30956743	12.00787012
5368	53.67000000	12.05038982	2.33908514	9.00832883	17.31620458	5.84833498	8.89475812	18.49363006	-15.74245120	-2.04903932	34.70891326	-0.12056925	5.61223269	11.65851633	0.44166989	4.26373614	11.67463508	0.54910994	0.09713795	21.77902315	0.11316728	13.98861039	5.61648990	2.25548067	11.87785339
5369	53.68000000	12.53054490	2.64303257	8.51133123	14.49721469	7.00115448	7.87788911	5.61440199	-4.09526767	3.08297009	29.32904425	-3.96848912	3.78331127	10.88727776	0.19115450	4.25486087	11.80418764	-0.15695056	0.73687294	17.00125060	-0.47610716	9.38131335	5.50362217	2.17010424	11.77112668
5370	53.69000000	13.43315553	2.02157146	7.84869144	10.64547509	3.80920608	6.06225299	4.20957701	3.61613676	-0.45354651	14.99154493	-6.27682427	-1.17550089	10.40051002	-0.64269198	3.96357288	12.28323607	-1.16619365	0.94991450	8.64485827	-1.16451008	7.56519813	5.45146465	1.87189180	11.77166760
5371	53.70000000	13.42013562	1.07235267	6.61538531	10.08229147	0.36817686	4.88314721	2.73173610	10.75940327	-4.74270178	6.79367630	-4.84877258	-5.34254573	10.54987776	-1.77119912	3.25071203	13.07483534	-2.49167924	0.93296511	13.43990985	-10.34634264	8.77397095	6.69846629	1.73712993	11.83371572
5372	53.71000000	13.20683559	0.04603702	5.80593162	11.41569151	-1.51718722	5.81625224	2.79900860	15.21581744	-5.35919242	3.95723805	-0.39936806	-1.55582993	11.06327966	-2.20115806	2.90608825	13.33967964	-3.61342587	0.93502956	13.82821656	-7.30292947	8.51701523	7.60492742	2.44920571	11.50679220
5373	53.72000000	13.52949505	-0.69775542	5.46471563	11.80682364	-2.46068657	6.68617439	6.47909055	13.33020488	-5.97619951	3.56643943	2.12477736	4.12027920	11.31949395	-2.10258826	2.45210846	12.75162860	-4.57189092	0.86748532	7.66257780	-4.93955668	7.99709246	9.61631814	3.15721015	11.52941808
5374	53.73000000	13.58670859	-1.41541422	5.06822500	11.47826418	-3.23431232	6.96921049	10.52227864	10.64578600	-6.32491517	3.09200043	2.83402173	2.48409375	10.85614660	-1.51798160	2.12397999	11.94138865	-5.28264007	0.89619754	7.38802533	-4.38761122	7.51583519	13.03672906	4.38331416	12.26181206
5375	53.74000000	12.97824050	-1.94615169	4.46861452	11.15190391	-3.99227928	7.24807822	10.58364604	10.87358558	-6.03349084	4.32860036	3.89886459	0.00162236	10.14218042	-0.80764912	1.83892415	11.15511130	-5.27770958	0.58497719	9.84734208	-1.99790803	8.05474906	15.64462452	5.64067047	12.88106312
5376	53.75000000	12.54890889	-2.19731942	4.14048590	10.83596061	-4.12214917	7.37763573	9.41080621	11.66775690	-3.68969840	8.43675472	2.36077205	-0.33118534	9.78174750	-1.00657601	1.10148660	10.69694484	-4.68625582	0.30174152	8.60054646	-0.64358227	9.23200731	14.71537906	7.34822021	13.30143370
5377	53.76000000	12.27200570	-2.21326056	4.13372903	10.45166048	-3.54540997	7.07439046	9.81187235	12.18490622	-1.19961476	11.04670539	-0.24698812	-0.83861739	9.33302472	-2.49933566	0.95042843	10.83695705	-3.90334769	0.29803233	7.10041487	-1.85867505	8.93883067	13.01322296	7.16402876	12.76652002
5378	53.77000000	11.75489957	-2.12403157	4.18804177	10.12156104	-2.30144007	6.75421607	9.78326432	11.43178092	-0.75739697	12.19123867	-1.41004452	-0.79508164	8.73182494	-4.95287283	0.74015238	11.20651141	-3.03838037	0.28585372	6.42956298	-2.87428216	8.23629100	11.88233340	5.06730576	9.79960620
5379	53.78000000	11.12760644	-2.05989888	4.16937727	9.75801915	-0.88923675	6.61557387	8.72197788	8.95211183	-0.45209335	13.16879750	-2.67433580	-0.68316448	7.71202690	-7.72480326	0.02602160	10.93393793	-1.97144249	0.59093265	5.74369667	-2.84890211	8.49030661	7.89085908	4.79979086	7.49444843
